<svg xmlns="http://www.w3.org/2000/svg" xmlns:xlink="http://www.w3.org/1999/xlink" version="1.1" x="0px" y="0px" viewBox="0 0 100 125" enable-background="new 0 0 100 100" xml:space="preserve"><g><path d="M86.223,27.227l-15.887-7.896v-0.029h-0.057l-19.617-9.75c-0.155-0.077-0.339-0.068-0.486,0.023   C50.028,9.666,49.938,9.827,49.938,10v11.825L22.644,9.544c-0.154-0.069-0.333-0.056-0.477,0.036   c-0.143,0.092-0.229,0.25-0.229,0.42v17.222l-0.072,0.26l0.072,0.02V90c0,0.17,0.086,0.328,0.229,0.42   c0.082,0.053,0.177,0.08,0.271,0.08c0.07,0,0.14-0.015,0.205-0.044l27.295-12.281V90c0,0.173,0.089,0.334,0.237,0.425   c0.08,0.05,0.171,0.075,0.263,0.075c0.076,0,0.152-0.018,0.223-0.053l35.562-17.675c0.17-0.084,0.277-0.258,0.277-0.447V27.674   C86.5,27.484,86.393,27.311,86.223,27.227z M50.938,10.807l9.776,4.859V29.45L58.5,28.837V26c0-0.197-0.115-0.375-0.295-0.456   l-7.267-3.269V10.807z M57.5,71.445l-3,0.942v-7.74l3-0.942V71.445z M49.938,65.029L48.5,65.481v-5.55   c0.425,0.882,0.91,1.652,1.438,2.304V65.029z M50.938,63.267c0.497,0.421,1.021,0.748,1.572,0.955l-1.572,0.493V63.267z    M53.5,64.96v7.74l-2.562,0.804v-7.74L53.5,64.96z M53.5,73.749v1.727l-2.562,1.152v-2.076L53.5,73.749z M54.5,73.435l3-0.942   v1.183l-3,1.35V73.435z M54,63.5c-1.098,0-2.143-0.601-3.062-1.65v-3.951l8.538-0.762C58.31,60.923,56.271,63.5,54,63.5z    M57.5,28.56l-3-0.831v-2.755l3,1.35V28.56z M54.5,28.766l3,0.831v6.722l-3-0.831V28.766z M53.5,27.451l-2.562-0.71v-3.37   l2.562,1.152V27.451z M53.5,28.489v6.722l-2.562-0.71v-6.722L53.5,28.489z M52.243,35.9c-0.454,0.204-0.888,0.493-1.304,0.845   v-1.206L52.243,35.9z M54,36.5c2.271,0,4.31,2.577,5.476,6.363l-8.538-0.762V38.15C51.857,37.101,52.902,36.5,54,36.5z    M50.938,56.895v-13.79l8.827,0.788C60.23,45.74,60.5,47.817,60.5,50c0,2.183-0.27,4.26-0.735,6.107L50.938,56.895z M58.5,38.344   v-8.47l2.215,0.614v12.485l-0.144-0.013C60.056,41.145,59.354,39.567,58.5,38.344z M48.5,22.274l1.438,0.647v4.301l-0.072,0.26   l0.072,0.02v6.722L48.5,33.825V22.274z M48.5,34.863l1.438,0.399v2.511c-0.529,0.649-1.014,1.416-1.438,2.297V34.863z M42.335,19.5   l5.165,2.324v11.724l-5.165-1.431V19.5z M42.335,33.154l5.165,1.431v8.103c-0.15,0.506-0.29,1.025-0.408,1.569l-4.756-0.425V33.154   z M42.335,44.837l4.57,0.408C46.647,46.731,46.5,48.324,46.5,50c0,1.675,0.147,3.269,0.406,4.755l-4.57,0.408V44.837z    M33.715,15.622l7.621,3.429v12.789l-7.621-2.112V15.622z M33.715,30.765l7.621,2.112v10.866l-7.621-0.68V30.765z M33.715,44.067   l7.621,0.68v10.505l-7.621,0.68V44.067z M32.715,84.828l-9.776,4.399V74.553l9.776-3.069V84.828z M32.715,70.435l-9.776,3.069   V57.899l9.776-0.873V70.435z M32.715,56.022l-9.776,0.873v-13.79l9.776,0.873V56.022z M32.715,42.974l-9.776-0.873V27.779   l9.776,2.709V42.974z M32.715,29.45l-9.776-2.709V10.773l9.776,4.399V29.45z M33.715,84.378V71.171l7.621-2.392v12.012h0.352   L33.715,84.378z M47.5,78.176L42.335,80.5V68.465l5.165-1.621V78.176z M47.5,65.795l-5.165,1.621V56.167l4.756-0.425   c0.118,0.544,0.258,1.063,0.408,1.57V65.795z M49.938,39.556v20.888C48.462,57.945,47.5,54.157,47.5,50   C47.5,45.842,48.462,42.055,49.938,39.556z M48.5,77.726V66.53l1.438-0.452v11.001L48.5,77.726z M60.715,84.334l-9.776,4.859   V77.725l7.267-3.269c0.18-0.081,0.295-0.26,0.295-0.456v-1.82l2.215-0.695V84.334z M60.715,70.435L58.5,71.131v-9.475   c0.854-1.223,1.556-2.801,2.071-4.617l0.144-0.013V70.435z M69.336,80.049l-7.621,3.788V71.171l7.621-2.392V80.049z M69.336,67.729   l-7.621,2.392V56.937l7.621-0.68V67.729z M69.336,55.252l-7.621,0.68V44.067l7.621,0.68V55.252z M69.336,43.744l-7.621-0.681   V30.765l7.621,2.112V43.744z M69.336,31.84l-7.621-2.112V16.163l7.621,3.788V31.84z M75.802,76.836l-5.466,2.717V68.465   l5.466-1.716V76.836z M75.802,65.7l-5.466,1.716V56.167l5.466-0.488V65.7z M75.802,54.675l-5.466,0.488V44.837l5.466,0.488V54.675z    M75.802,44.321l-5.466-0.488V33.155l5.466,1.515V44.321z M75.802,33.631l-5.466-1.515V20.448l5.466,2.717V33.631z M81.189,74.158   l-4.388,2.181v-9.904l4.388-1.377V74.158z M81.189,64.009l-4.388,1.377v-9.797l4.388-0.392V64.009z M81.189,54.194l-4.388,0.392   v-9.171l4.388,0.392V54.194z M81.189,44.802l-4.388-0.392v-9.464l4.388,1.216V44.802z M81.189,35.124l-4.388-1.216V23.661   l4.388,2.181V35.124z M85.5,72.016l-3.311,1.645v-8.917l3.311-1.039V72.016z M85.5,62.656l-3.311,1.039v-8.587l3.311-0.296V62.656z    M85.5,53.809l-3.311,0.296v-8.209l3.233,0.289l0.077-0.855V53.809z M85.5,45.187l-3.311-0.296V36.44l3.311,0.917V45.187z    M85.5,36.319l-3.311-0.917v-9.063l3.311,1.645V36.319z"/></g><text x="0" y="115" fill="#000000" font-size="5px" font-weight="bold" font-family="'Helvetica Neue', Helvetica, Arial-Unicode, Arial, Sans-serif">Created by Jamison Wieser</text><text x="0" y="120" fill="#000000" font-size="5px" font-weight="bold" font-family="'Helvetica Neue', Helvetica, Arial-Unicode, Arial, Sans-serif">from the Noun Project</text></svg>